<svg xmlns="http://www.w3.org/2000/svg" width="69" height="69" viewBox="0 0 69 69">
  <g id="Group_1189" data-name="Group 1189" transform="translate(-1392 -1249)">
    <circle id="Ellipse_125" data-name="Ellipse 125" cx="34.5" cy="34.5" r="34.5" transform="translate(1392 1249)" fill="#f7efa7"/>
    <path id="_93ebda1b64c53d147d75cea475d7058b" data-name="93ebda1b64c53d147d75cea475d7058b" d="M23,44A21,21,0,1,0,2,23,21,21,0,0,0,23,44Zm7.426-28.426a2.1,2.1,0,1,1,2.969,2.974L21.524,30.419l-.008.008a2.094,2.094,0,0,1-2.969,0l-.008-.008-5.933-5.933a2.1,2.1,0,1,1,2.97-2.97l4.456,4.454,10.4-10.395Z" transform="translate(1404 1261)" fill-rule="evenodd"/>
  </g>
</svg>
