<svg xmlns="http://www.w3.org/2000/svg" width="69" height="69" viewBox="0 0 69 69">
  <g id="Group_1188" data-name="Group 1188" transform="translate(-1028 -1249)">
    <circle id="Ellipse_124" data-name="Ellipse 124" cx="34.5" cy="34.5" r="34.5" transform="translate(1028 1249)" fill="#f7efa7"/>
    <g id="ee77872985c905145f76111799114758" transform="translate(1043.996 1265.063)">
      <path id="Path_915" data-name="Path 915" d="M13.5,20.824a5.428,5.428,0,1,0,.516,6.493,5.428,5.428,0,0,0-.516-6.493Zm21.714,0a5.428,5.428,0,1,0,.516,6.493,5.428,5.428,0,0,0-.516-6.493Z" transform="translate(0.714 4.994)"/>
      <path id="Path_916" data-name="Path 916" d="M26.428,9.071V25.356a6.785,6.785,0,0,0-1.221,2.714H16.792a6.555,6.555,0,0,0-1.574-3.135,6.785,6.785,0,0,0-10.11,0,6.555,6.555,0,0,0-1.357,2.416A4.071,4.071,0,0,1,2,24V9.071A4.071,4.071,0,0,1,6.071,5H22.356A4.071,4.071,0,0,1,26.428,9.071Zm13.218,8.821a3.841,3.841,0,0,0-.543-.909l-4.071-5.035a4.071,4.071,0,0,0-3.176-1.52h-.679v7.464Z" transform="translate(0 0)"/>
      <path id="Path_917" data-name="Path 917" d="M33.214,18.093v7.193a1.357,1.357,0,0,1-1.357,1.357h-.136A6.785,6.785,0,0,0,21,22.571V9h2.036v8.143a.679.679,0,0,0,.679.679h9.5a1.846,1.846,0,0,1,0,.271Z" transform="translate(6.785 1.428)"/>
    </g>
  </g>
</svg>
