<?xml version="1.0" encoding="UTF-8"?>
<svg width="150px" height="120px" viewBox="0 0 150 120" version="1.1" xmlns="http://www.w3.org/2000/svg" xmlns:xlink="http://www.w3.org/1999/xlink">
    <title>Group 74</title>
    <g id="Page-1" stroke="none" stroke-width="1" fill="none" fill-rule="evenodd">
        <g id="Group-74" fill="#FFFFFF">
            <g id="Group-47">
                <rect id="Rectangle" x="0" y="0" width="150" height="120"></rect>
            </g>
            <g id="Group-48-Copy-29" transform="translate(5.000000, 5.000000)" stroke="#BBBBBB">
                <g id="1520" transform="translate(0.898438, 0.922330)">
                    <path d="M17.1054685,0.5 C18.2271445,0.5 19.28984,0.849710355 20.1702837,1.46309762 C21.0512357,2.07683909 21.7497238,2.95453267 22.1425462,4.01008549 C22.2094631,4.18989798 22.2662939,4.37160376 22.3132559,4.55447115 C22.4756852,4.45837556 22.6443217,4.3701855 22.8187839,4.29054475 C23.8385444,3.82503134 24.948604,3.70125239 26.0019096,3.89255635 C27.0554454,4.08390212 28.0521565,4.59045121 28.8447606,5.38503512 C29.6376253,6.18114204 30.1430479,7.18236831 30.3344659,8.24080621 C30.5259254,9.29947301 30.4032609,10.4154211 29.9396773,11.4407929 C29.8613004,11.6141499 29.7745427,11.781901 29.6800268,11.943676 C29.8612697,11.9908456 30.0412497,12.0478161 30.2192568,12.1147678 C31.2694798,12.5097754 32.1423927,13.2113535 32.7527322,14.0955899 C33.3634253,14.9803387 33.7112693,16.0479595 33.7109373,17.1749047 C33.7112693,18.3015551 33.3634253,19.3691758 32.7527322,20.2539246 C32.1423927,21.1381611 31.2694798,21.8397391 30.2192568,22.2347468 C30.0411856,22.3017226 29.8611401,22.35871 29.6801285,22.4060182 C29.7746054,22.5677347 29.8613287,22.7354273 29.9396773,22.9087216 C30.4032609,23.9340934 30.5259254,25.0500416 30.3344659,26.1087084 C30.1430479,27.1671463 29.6376253,28.1683725 28.8448032,28.9644367 C28.0523564,29.7599321 27.0556864,30.2668291 26.0021295,30.4581787 C24.9488033,30.6494864 23.8386611,30.5253674 22.8190905,30.0591099 C22.6445363,29.9792849 22.4758314,29.8908925 22.3133218,29.7946388 C22.2663753,29.9776504 22.2095111,30.1594877 22.1425462,30.3394291 C21.7497238,31.3949819 21.0512357,32.2726755 20.1702837,32.8864169 C19.28984,33.4998042 18.2271445,33.8495146 17.1060053,33.8495149 C15.984548,33.8483109 14.9222005,33.4981623 14.0417863,32.8847955 C13.1608604,32.2710723 12.4620808,31.393854 12.0682036,30.338927 C12.001131,30.1592855 11.9441138,29.9777416 11.8967999,29.7951462 C11.7345815,29.8912316 11.5661573,29.9794246 11.3919078,30.0590818 C10.3722992,30.5251904 9.26217358,30.6492413 8.20885149,30.4579344 C7.1552988,30.2665855 6.1586206,29.7597582 5.36608148,28.9643842 C4.57296563,28.1684531 4.06740464,27.1672433 3.87598508,26.108797 C3.68452409,25.0501216 3.80732403,23.9341398 4.27120445,22.9088437 C4.34965981,22.735437 4.43650444,22.5676461 4.53091019,22.4058386 C4.34966727,22.358669 4.16968729,22.3016985 3.99168014,22.2347468 C2.94145718,21.8397391 2.06854428,21.1381611 1.45820479,20.2539246 C0.847511649,19.3691758 0.49966763,18.3015551 0.499999674,17.1749964 C0.500538119,16.0491135 0.84873977,14.9824067 1.45939394,14.0984473 C2.06969457,13.2149998 2.94217241,12.5140863 3.9916801,12.1193477 C4.16969414,12.0523935 4.3496824,11.9954209 4.53080842,11.9480763 C4.4363316,11.7863598 4.34960825,11.6186672 4.27125968,11.4453729 C3.8076761,10.4200011 3.68501159,9.30405294 3.87647103,8.24538614 C4.06788907,7.18694825 4.57331168,6.18572198 5.36625759,5.38953345 C6.15848668,4.59369817 7.15497049,4.08622793 8.20852992,3.89414543 C9.26185807,3.7021051 10.3721908,3.8253315 11.3922978,4.29061081 C11.566757,4.37018312 11.7353917,4.45830682 11.8978169,4.55408949 C11.9447246,4.37134335 12.0015218,4.18976913 12.0683908,4.01008549 C12.4612132,2.95453267 13.1597012,2.07683909 14.0406533,1.46309762 C14.921097,0.849710355 15.9837925,0.5 17.1054685,0.5 Z" id="Path_4455"></path>
                </g>
            </g>
        </g>
    </g>
</svg>